<svg xmlns="http://www.w3.org/2000/svg" viewBox="0 0 300 130" role="img" aria-label="Arduino Mega 2560">
<rect x="6" y="14" width="288" height="106" rx="8" fill="#00697a" stroke="#0a4a55"/>
<!-- USB-B left -->
<rect x="0" y="28" width="34" height="36" rx="2" fill="#9aa4ad" stroke="#5a6670"/>
<rect x="4" y="34" width="26" height="24" fill="#1a2026"/>
<!-- DC jack -->
<rect x="0" y="80" width="32" height="26" rx="2" fill="#1a1a1a" stroke="#5a6670"/>
<circle cx="14" cy="93" r="6" fill="#0a0a0a" stroke="#4a4a4a"/>
<circle cx="14" cy="93" r="2" fill="#c89b2f"/>
<!-- ATmega2560 TQFP-100 (large square) -->
<rect x="160" y="50" width="64" height="56" rx="1" fill="#0a0a0a"/>
<text x="192" y="76" text-anchor="middle" font-family="Segoe UI" font-size="9" fill="#e2e8f0" font-weight="700">ATmega2560</text>
<text x="192" y="90" text-anchor="middle" font-family="Segoe UI" font-size="6" fill="#94a3b8">TQFP-100</text>
<!-- Top headers - very long -->
<rect x="40" y="14" width="252" height="12" fill="#1a1a1a"/>
<g fill="#c89b2f">
<circle cx="48" cy="20" r="1.4"/><circle cx="56" cy="20" r="1.4"/><circle cx="64" cy="20" r="1.4"/><circle cx="72" cy="20" r="1.4"/><circle cx="80" cy="20" r="1.4"/><circle cx="88" cy="20" r="1.4"/><circle cx="96" cy="20" r="1.4"/><circle cx="104" cy="20" r="1.4"/><circle cx="112" cy="20" r="1.4"/><circle cx="120" cy="20" r="1.4"/><circle cx="128" cy="20" r="1.4"/><circle cx="136" cy="20" r="1.4"/><circle cx="144" cy="20" r="1.4"/><circle cx="152" cy="20" r="1.4"/><circle cx="160" cy="20" r="1.4"/><circle cx="168" cy="20" r="1.4"/><circle cx="176" cy="20" r="1.4"/><circle cx="184" cy="20" r="1.4"/><circle cx="192" cy="20" r="1.4"/><circle cx="200" cy="20" r="1.4"/><circle cx="208" cy="20" r="1.4"/><circle cx="216" cy="20" r="1.4"/><circle cx="224" cy="20" r="1.4"/><circle cx="232" cy="20" r="1.4"/><circle cx="240" cy="20" r="1.4"/><circle cx="248" cy="20" r="1.4"/><circle cx="256" cy="20" r="1.4"/><circle cx="264" cy="20" r="1.4"/><circle cx="272" cy="20" r="1.4"/><circle cx="280" cy="20" r="1.4"/>
</g>
<text x="160" y="9" text-anchor="middle" font-family="Segoe UI" font-size="6" fill="#94a3b8">DIGITAL 0-53 (PWM 2-13)</text>
<!-- Bottom headers -->
<rect x="40" y="108" width="252" height="12" fill="#1a1a1a"/>
<g fill="#c89b2f">
<circle cx="48" cy="114" r="1.4"/><circle cx="56" cy="114" r="1.4"/><circle cx="64" cy="114" r="1.4"/><circle cx="72" cy="114" r="1.4"/><circle cx="80" cy="114" r="1.4"/><circle cx="88" cy="114" r="1.4"/><circle cx="96" cy="114" r="1.4"/><circle cx="104" cy="114" r="1.4"/><circle cx="112" cy="114" r="1.4"/><circle cx="120" cy="114" r="1.4"/><circle cx="128" cy="114" r="1.4"/><circle cx="136" cy="114" r="1.4"/><circle cx="144" cy="114" r="1.4"/><circle cx="152" cy="114" r="1.4"/><circle cx="160" cy="114" r="1.4"/><circle cx="168" cy="114" r="1.4"/><circle cx="176" cy="114" r="1.4"/><circle cx="184" cy="114" r="1.4"/><circle cx="192" cy="114" r="1.4"/><circle cx="200" cy="114" r="1.4"/><circle cx="208" cy="114" r="1.4"/><circle cx="216" cy="114" r="1.4"/><circle cx="224" cy="114" r="1.4"/><circle cx="232" cy="114" r="1.4"/><circle cx="240" cy="114" r="1.4"/><circle cx="248" cy="114" r="1.4"/><circle cx="256" cy="114" r="1.4"/><circle cx="264" cy="114" r="1.4"/><circle cx="272" cy="114" r="1.4"/><circle cx="280" cy="114" r="1.4"/>
</g>
<text x="160" y="129" text-anchor="middle" font-family="Segoe UI" font-size="6" fill="#94a3b8">POWER + ANALOG A0-A15</text>
<!-- reset -->
<rect x="40" y="34" width="12" height="12" rx="1" fill="#3a3a3a" stroke="#7a7a7a"/>
<circle cx="46" cy="40" r="3" fill="#c0392b"/>
<!-- LEDs -->
<g><circle cx="60" cy="60" r="2" fill="#4ade80"/><circle cx="68" cy="60" r="2" fill="#fbbf24"/><circle cx="76" cy="60" r="2" fill="#fb923c"/><circle cx="84" cy="60" r="2" fill="#fb923c"/></g>
<!-- Quartz -->
<rect x="110" y="46" width="18" height="8" rx="1" fill="#c0c0c0"/>
<!-- ICSP -->
<rect x="232" y="50" width="14" height="20" fill="#1a1a1a"/>
<g fill="#c89b2f"><circle cx="236" cy="55" r="1"/><circle cx="242" cy="55" r="1"/><circle cx="236" cy="60" r="1"/><circle cx="242" cy="60" r="1"/><circle cx="236" cy="65" r="1"/><circle cx="242" cy="65" r="1"/></g>
<!-- label -->
<text x="86" y="96" font-family="Segoe UI" font-size="14" fill="#ffffff" font-weight="700" font-style="italic">MEGA 2560</text>
</svg>
