<svg xmlns="http://www.w3.org/2000/svg" viewBox="0 0 240 100" role="img" aria-label="Pojemnościowy czujnik wilgotności gleby">
<!-- PCB w kształcie ostrza/szpatułki -->
<path d="M16 36 H 200 L 224 50 L 200 64 H 16 Z" fill="#0d3b6f" stroke="#082548"/>
<!-- IC u góry -->
<rect x="160" y="42" width="32" height="16" rx="1" fill="#0a0a0a"/>
<text x="176" y="53" text-anchor="middle" font-size="5" fill="#e2e8f0">555</text>
<!-- pole pomiarowe pojemnościowe (paski) -->
<g fill="#c89b2f" opacity="0.5"><rect x="30" y="42" width="2" height="16"/><rect x="36" y="42" width="2" height="16"/><rect x="42" y="42" width="2" height="16"/><rect x="48" y="42" width="2" height="16"/><rect x="54" y="42" width="2" height="16"/><rect x="60" y="42" width="2" height="16"/><rect x="66" y="42" width="2" height="16"/><rect x="72" y="42" width="2" height="16"/><rect x="78" y="42" width="2" height="16"/><rect x="84" y="42" width="2" height="16"/><rect x="90" y="42" width="2" height="16"/><rect x="96" y="42" width="2" height="16"/><rect x="102" y="42" width="2" height="16"/><rect x="108" y="42" width="2" height="16"/><rect x="114" y="42" width="2" height="16"/><rect x="120" y="42" width="2" height="16"/><rect x="126" y="42" width="2" height="16"/><rect x="132" y="42" width="2" height="16"/><rect x="138" y="42" width="2" height="16"/></g>
<!-- piny -->
<rect x="200" y="34" width="14" height="32" fill="#1a1a1a"/>
<g fill="#c89b2f"><circle cx="207" cy="42" r="1.5"/><circle cx="207" cy="50" r="1.5"/><circle cx="207" cy="58" r="1.5"/></g>
<text x="219" y="44" font-size="5" fill="#cbd5e1">VCC</text>
<text x="219" y="52" font-size="5" fill="#cbd5e1">A0</text>
<text x="219" y="60" font-size="5" fill="#cbd5e1">GND</text>
<text x="100" y="80" text-anchor="middle" font-size="8" fill="#e2e8f0" font-weight="700">Wilgotność gleby (pojemnościowy)</text>
<text x="100" y="92" text-anchor="middle" font-size="6" fill="#94a3b8">nie koroduje – polecany do ogrodu</text>
</svg>
